<svg width="70" height="52" viewBox="0 0 70 52" fill="none" xmlns="http://www.w3.org/2000/svg">
<path fill-rule="evenodd" clip-rule="evenodd" d="M21.1625 7C21.191 6.87317 21.2244 6.73132 21.2628 6.57739C21.4184 5.95532 21.6655 5.10278 22.0288 4.23071C22.3838 3.37878 22.8974 2.39075 23.6351 1.58606C24.3889 0.763672 25.5105 0 27 0H43.5C45.0038 0 46.0499 0.91333 46.6696 1.69604C47.3017 2.49451 47.7481 3.4657 48.0602 4.29773C48.381 5.1532 48.6066 5.99072 48.7512 6.60291C48.7794 6.72241 48.8047 6.83447 48.8274 6.93762L48.841 7H60.85C64.7433 7 66.69 7 68.0334 8.02527C68.3877 8.29565 68.7043 8.6123 68.9747 8.96655C70 10.3101 70 12.2567 70 16.15V42.85C70 46.7433 70 48.6899 68.9747 50.0334C68.7043 50.3877 68.3877 50.7043 68.0334 50.9747C66.69 52 64.7433 52 60.85 52H9.14999C5.25668 52 3.31003 52 1.96658 50.9747C1.61226 50.7043 1.29568 50.3877 1.02528 50.0334C0 48.6899 0 46.7433 0 42.85V16.15C0 12.2567 0 10.3101 1.02528 8.96655C1.29568 8.6123 1.61226 8.29565 1.96658 8.02527C3.29266 7.01331 5.20647 7 9 7C9 5.89539 9.89543 5 11 5H14C15.1046 5 16 5.89539 16 7H21.1625ZM44.7265 7C44.6177 6.59509 44.4807 6.14441 44.3148 5.70227C44.0644 5.0343 43.7921 4.50549 43.5335 4.17896C43.461 4.0874 43.4067 4.03198 43.371 4H27H26.9987C26.9814 3.99951 26.8526 3.99561 26.5837 4.28894C26.2901 4.60925 25.9912 5.12122 25.7212 5.76929C25.5471 6.18701 25.4046 6.61328 25.2917 7H25.2966H44.7227H44.7265ZM9.14999 11H24H35H46H60.85C62.8893 11 64.0853 11.0059 64.9515 11.1031C65.3694 11.1501 65.5674 11.2059 65.6404 11.2319C65.6867 11.2705 65.7294 11.3134 65.768 11.3596C65.7941 11.4325 65.8499 11.6306 65.8968 12.0485C65.9941 12.9147 66 14.1107 66 16.15V42.85C66 44.8893 65.9941 46.0853 65.8968 46.9515C65.8499 47.3694 65.7941 47.5675 65.768 47.6404C65.7294 47.6866 65.6867 47.7294 65.6404 47.7681C65.5675 47.7941 65.3694 47.8499 64.9515 47.8969C64.0853 47.9941 62.8893 48 60.85 48H9.14999C7.1107 48 5.91467 47.9941 5.04848 47.8969C4.63058 47.8499 4.43254 47.7941 4.3596 47.7681C4.31331 47.7295 4.27057 47.6866 4.23196 47.6404C4.20592 47.5675 4.1501 47.3694 4.10318 46.9515C4.00591 46.0853 4 44.8893 4 42.85V16.15C4 14.1107 4.00591 12.9147 4.10318 12.0485C4.1501 11.6306 4.20592 11.4325 4.23196 11.3596C4.27057 11.3132 4.31329 11.2706 4.35959 11.2319C4.43253 11.2059 4.63055 11.1501 5.04848 11.1031C5.91467 11.0059 7.1107 11 9.14999 11ZM43.3195 3.96118C43.3195 3.96069 43.324 3.96277 43.3329 3.96899C43.324 3.96472 43.3195 3.96167 43.3195 3.96118ZM65.6751 11.2467C65.6746 11.2469 65.6677 11.2443 65.6562 11.2379C65.6699 11.2433 65.6757 11.2465 65.6751 11.2467ZM65.7556 47.6689L65.7574 47.6675C65.7549 47.6731 65.7535 47.6754 65.7533 47.6752C65.7531 47.6749 65.7539 47.6727 65.7556 47.6689ZM65.7533 11.3248C65.7532 11.3251 65.7536 11.3264 65.7545 11.3286C65.7559 11.3318 65.7584 11.3369 65.7621 11.3438L65.7557 11.3289C65.7542 11.3258 65.7534 11.3246 65.7533 11.3248ZM65.6562 47.7621C65.6621 47.7588 65.6668 47.7566 65.67 47.7551C65.6731 47.7538 65.6749 47.7532 65.6751 47.7533L65.6743 47.754L65.671 47.7557C65.6679 47.7573 65.663 47.7594 65.6562 47.7621ZM4.33308 47.7577L4.33241 47.7561C4.32785 47.754 4.32521 47.7532 4.32487 47.7533C4.32449 47.7534 4.32704 47.755 4.33308 47.7577ZM4.24672 47.6752C4.24649 47.6757 4.2433 47.6699 4.23788 47.6562C4.24423 47.6677 4.24695 47.6746 4.24672 47.6752ZM4.24672 11.3248C4.24695 11.3254 4.24423 11.3323 4.23787 11.3439C4.2433 11.3301 4.24649 11.3243 4.24672 11.3248ZM4.32487 11.2467C4.32431 11.2465 4.33006 11.2433 4.34384 11.2379C4.33232 11.2443 4.32544 11.2469 4.32487 11.2467ZM35.5 39C40.7467 39 45 34.7467 45 29.5C45 24.2533 40.7467 20 35.5 20C30.2533 20 26 24.2533 26 29.5C26 34.7467 30.2533 39 35.5 39ZM35.5 43C42.9558 43 49 36.9558 49 29.5C49 22.0442 42.9558 16 35.5 16C28.0442 16 22 22.0442 22 29.5C22 36.9558 28.0442 43 35.5 43ZM55.5 27C57.433 27 59 25.433 59 23.5C59 21.567 57.433 20 55.5 20C53.567 20 52 21.567 52 23.5C52 25.433 53.567 27 55.5 27Z" fill="black"/>
</svg>
