<svg width="24" height="22" viewBox="0 0 24 22" fill="none" xmlns="http://www.w3.org/2000/svg">
<path d="M13.0607 0.939341C12.4749 0.353554 11.5251 0.353554 10.9393 0.939341L1.3934 10.4853C0.807611 11.0711 0.807611 12.0208 1.3934 12.6066C1.97919 13.1924 2.92893 13.1924 3.51472 12.6066L12 4.12132L20.4853 12.6066C21.0711 13.1924 22.0208 13.1924 22.6066 12.6066C23.1924 12.0208 23.1924 11.0711 22.6066 10.4853L13.0607 0.939341ZM13.5 22L13.5 2H10.5L10.5 22H13.5Z" fill="#CECECE"/>
<line x1="2" y1="12.5" x2="22" y2="12.5" stroke="#CECECE"/>
<path d="M14.2 9.18605C13.7949 8.92472 13.2803 8.53468 13.3514 7.98947C13.3688 7.85608 13.4672 7.72378 13.5306 7.6074C13.5552 7.56236 13.6574 7.46167 13.6076 7.47412C13.4283 7.51896 13.5106 8.32295 13.5158 8.41005C13.5593 9.13348 13.7339 9.83376 14.0267 10.4967C14.1511 10.7781 14.3217 11.2372 14.6102 11.403C14.9154 11.5783 14.756 10.4427 14.7465 10.3693C14.6306 9.47808 14.3751 8.57485 14.0904 7.72439C14.026 7.53187 13.8298 7.01188 13.7705 7.20607C13.5985 7.77001 13.698 8.46573 13.7691 9.03648C13.8379 9.58942 13.9359 10.2555 14.24 10.7395C14.4449 11.0657 14.6561 10.8074 14.7524 10.5411C15.0154 9.81376 14.8665 9.01393 14.631 8.30195C14.5292 7.99436 14.411 7.68112 14.2415 7.40303C14.1866 7.31298 14.1067 7.19341 13.9868 7.19126C13.7051 7.18624 13.7603 7.62506 13.7854 7.78659C13.8573 8.2513 14.0766 8.72114 14.354 9.09868C14.5981 9.43086 14.9178 9.68528 15.2159 9.96501C15.2517 9.99857 15.4522 10.261 15.5047 10.1398C15.6479 9.80864 15.5554 9.27552 15.5091 8.93726C15.4244 8.31779 15.2324 7.69836 14.9479 7.14091C14.8262 6.90256 14.652 6.63387 14.3673 6.57965C13.8338 6.47802 14.2031 8.03195 14.2726 8.21902C14.3813 8.51166 14.5352 8.77745 14.7524 9.00242C14.8895 9.14442 14.8049 8.44427 14.8013 8.41894C14.6889 7.64095 14.397 6.85491 14.0993 6.13093C13.9499 5.76768 13.7544 5.4114 13.4744 5.13132C13.1808 4.83775 13.1305 5.51429 13.1412 5.6837C13.1605 5.99 13.2832 6.30039 13.4536 6.55299C13.4709 6.57854 13.6492 6.89064 13.6817 6.89064C13.8029 6.89064 13.5303 5.21614 13.4966 5.04395C13.3944 4.52181 13.5308 6.10849 13.5884 6.6374C13.6151 6.88241 13.6669 7.12924 13.6669 7.37638C13.6669 7.53731 13.6285 7.05611 13.5914 6.89953C13.4855 6.45315 13.3705 5.9571 13.1471 5.5519C13.0229 5.32662 12.7903 5.19025 12.534 5.26016C11.6011 5.51457 10.9066 6.53595 10.477 7.33047C10.4169 7.44166 10.3704 7.55701 10.3141 7.6696C10.3075 7.68285 10.3117 7.63947 10.3156 7.62517C10.4149 7.25876 10.4914 6.88698 10.591 6.52041C10.6965 6.13237 10.8315 5.72763 10.8872 5.32828C10.9079 5.18027 10.4406 5.72495 10.4252 5.74738C10.0108 6.34801 9.70021 7.06844 9.41815 7.7392C9.32744 7.95491 9.25506 8.17509 9.18565 8.39821C9.17006 8.44832 9.0903 8.56199 9.14122 8.54926C9.20765 8.53265 9.21086 8.43103 9.23896 8.36859C9.34845 8.12528 9.44573 7.87605 9.54403 7.62813C9.83368 6.89757 10.1124 6.16274 10.4015 5.43194C10.4252 5.3719 10.7189 4.73484 10.4518 5.07949C9.99654 5.66695 9.62008 6.31508 9.18417 6.9173C8.82909 7.40784 8.51413 7.91917 8.17271 8.41746C8.05422 8.59039 8.11032 8.46547 8.1579 8.34785C8.41904 7.70226 8.69674 7.06156 9.02423 6.44637C9.13498 6.23832 9.54187 5.66067 9.39149 5.84216C8.86987 6.47171 8.37502 7.12324 7.89726 7.78659C7.61685 8.17592 7.33477 8.56809 7.08572 8.97872C7.04733 9.04202 7.01173 9.10702 6.97761 9.17272C6.9532 9.21974 6.89616 9.27342 6.91986 9.32081C6.95283 9.38676 6.9902 9.19105 7.02056 9.12385C7.07813 8.99644 7.13917 8.86871 7.18346 8.73585C7.2396 8.56744 7.29305 8.3598 7.29305 8.18051C7.29305 8.0551 7.04761 8.26567 6.95984 8.35526C6.62206 8.70008 6.28449 9.04533 5.9469 9.39041C5.78813 9.55271 5.65046 9.73869 5.49226 9.89688C5.39598 9.99317 5.28989 10.0712 5.18275 10.1546C5.13261 10.1936 5.06659 10.2009 5.01985 10.2405C4.82987 10.4012 4.79239 10.6855 4.69849 10.9009C4.65578 10.9989 4.66097 11.1211 4.61556 11.2119C4.5953 11.2525 4.56223 11.3042 4.52375 11.3289C4.51562 11.3342 4.44384 11.3476 4.44822 11.3585C4.47637 11.4289 4.6328 11.4696 4.69701 11.4933C4.80017 11.5313 4.87686 11.6027 4.99023 11.6236C5.31458 11.6834 5.67927 11.6384 6.0091 11.6384C6.03644 11.6384 6.11842 11.645 6.04612 11.6103C5.91171 11.5458 5.73882 11.5389 5.59296 11.52C5.35186 11.4887 5.1188 11.5166 4.87916 11.5303C4.62454 11.5449 4.36582 11.5318 4.11057 11.5318C4.05243 11.5318 4.0581 11.6376 4.07503 11.6799C4.17154 11.9212 4.75837 11.8344 4.931 11.8132C5.2891 11.7692 5.64622 11.7312 6.00614 11.7051C6.40641 11.6761 6.783 11.7984 7.18346 11.7984C7.52935 11.7984 7.85647 11.7299 8.1964 11.6636C8.65392 11.5743 9.09917 11.5851 9.56476 11.5851C9.84351 11.5851 10.1305 11.6051 10.4059 11.5585C10.6366 11.5194 10.8773 11.4958 11.1108 11.4815C11.1473 11.4792 11.4344 11.4766 11.3552 11.4578C11.0152 11.3768 10.6381 11.3661 10.2934 11.3482C9.65262 11.3148 9.01075 11.3131 8.36967 11.2889C7.74831 11.2656 7.10222 11.2672 6.48595 11.1734C6.32519 11.149 6.47528 11.0507 6.54371 10.9528C7.1966 10.0188 7.68047 8.95463 8.17419 7.93172C8.33017 7.60855 8.48518 7.28313 8.62586 6.95284C8.6621 6.86776 8.77537 6.66177 8.6851 6.68183C8.55128 6.71157 8.38921 6.91382 8.31191 7.00319C8.11566 7.23008 7.95535 7.48281 7.79656 7.73624C7.5975 8.05392 6.94477 8.96989 7.14496 8.65292C7.2504 8.48597 7.34216 8.30899 7.4515 8.14497C7.47662 8.10729 7.5964 7.97943 7.46335 8.05463C7.10702 8.25604 6.80108 8.54877 6.49336 8.81434C6.13849 9.1206 5.7468 9.4016 5.42414 9.74287C5.32775 9.84483 5.20519 10.3021 5.50263 10.1709C6.20514 9.86092 7.00228 7.53629 6.82212 8.28269C6.66995 8.91311 6.31658 9.50903 6.23272 10.159C6.20791 10.3512 6.37815 10.4944 6.52001 10.5929C6.88648 10.8475 7.24647 10.7913 7.61588 10.5648C8.24151 10.1812 8.54209 9.49359 8.75619 8.81878C8.86253 8.48359 9.00376 8.0307 8.94574 7.66812C8.92853 7.56056 8.34526 8.19269 8.32376 8.22346C8.03052 8.64305 7.70949 9.1775 7.62625 9.69252C7.53136 10.2796 8.47159 10.2622 8.79173 10.0005C9.19516 9.67082 9.39681 9.16548 9.47887 8.66477C9.47939 8.66157 9.57159 8.11321 9.42556 8.23234C9.11118 8.48881 9.12233 9.15345 9.09383 9.50889C9.079 9.69387 8.96386 10.3403 9.18565 10.4833C9.46876 10.6659 9.76062 9.95488 9.80763 9.81988C10.0357 9.16487 10.1315 8.44694 10.0298 7.75845C10.0215 7.70236 9.94891 7.12607 9.7632 7.30529C9.46336 7.59468 9.45021 8.2519 9.42556 8.62627C9.39079 9.15425 9.40653 9.72949 9.60326 10.2286C9.66518 10.3857 9.74297 10.4751 9.86983 10.2938C10.1898 9.83635 10.2961 9.22947 10.2904 8.68254C10.29 8.64107 10.2854 7.83785 10.1364 7.87693C10.0281 7.90533 9.93009 8.15049 9.89797 8.2205C9.78621 8.46403 9.7244 8.71373 9.68916 8.97872C9.63212 9.40761 9.55026 9.95104 9.74543 10.3589C9.83995 10.5565 10.0451 10.8436 10.2726 10.9009C10.6532 10.9969 10.6311 10.2539 10.6281 10.0391C10.6189 9.39966 9.96578 10.201 9.80467 10.353C9.59598 10.5499 9.36182 10.7437 9.12049 10.9009C8.93445 11.0221 8.52662 10.8773 8.32968 10.8506C8.08781 10.8177 7.845 10.8025 7.60108 10.818C7.45126 10.8275 7.30396 10.8362 7.15384 10.8387C7.06271 10.8403 7.44293 10.9083 7.47372 10.9128C7.77535 10.9563 8.06332 11.0297 8.3593 11.0994C8.44724 11.1201 8.60283 11.1377 8.40669 11.132C7.38522 11.1019 6.38616 10.7997 5.37083 10.7114C5.22943 10.6991 5.09913 10.6907 5.33232 10.7617C5.82374 10.9114 6.32287 11.0351 6.82212 11.1557C6.96603 11.1904 7.11013 11.2237 7.25602 11.249C7.28976 11.2548 7.38534 11.2802 7.35821 11.2593C7.21678 11.1505 6.92253 11.1419 6.754 11.1053C6.64796 11.0823 6.343 11.0679 6.44004 11.0194C6.49893 10.99 6.59429 10.9786 6.65329 10.9676C6.94794 10.9125 7.2456 10.872 7.54184 10.8269C8.34262 10.705 9.14421 10.5642 9.95276 10.5041C10.4081 10.4702 10.9087 10.4111 11.3567 10.5307C12.1353 10.7386 12.91 10.8681 13.7172 10.8861C14.2293 10.8976 14.7563 10.9203 15.2663 10.8595C15.4008 10.8434 15.5921 10.835 15.6987 10.738C15.7094 10.7283 15.7221 10.7312 15.6824 10.7336C15.4889 10.7453 15.2952 10.7684 15.1034 10.7943C14.4023 10.8889 13.716 11.0459 13.0212 11.1734C12.9518 11.1862 12.7775 11.1821 12.8198 11.2386C12.9567 11.4211 13.2748 11.5312 13.4803 11.591C13.8853 11.7091 14.3347 11.772 14.7568 11.7332C14.7984 11.7294 15.1529 11.6397 14.9405 11.6829C14.5279 11.7667 14.0903 11.905 13.6669 11.905C13.5405 11.905 13.4541 11.7978 13.3589 11.7243C13.2947 11.6748 13.2753 11.6117 13.2433 11.5377C13.1825 11.397 13.0682 11.2218 13.0597 11.0638C13.05 10.8822 13.6755 10.8168 13.7676 10.8032C14.4245 10.7065 15.0879 10.7725 15.7342 10.9069C15.9207 10.9456 16.1728 10.9575 16.2851 11.126C16.2973 11.1444 15.9668 11.1899 15.9564 11.1912C15.6756 11.2273 15.3767 11.2286 15.1034 11.3067C15.0513 11.3216 15.0326 11.3509 15.0945 11.3778C15.3004 11.4673 15.5373 11.5528 15.7609 11.5792C15.9414 11.6005 16.1337 11.5851 16.3147 11.5851C16.5272 11.5851 16.7275 11.4879 16.9456 11.4785C17.0899 11.4723 17.2084 11.4117 17.3514 11.3926C17.5114 11.3713 17.4615 11.3441 17.3129 11.3186C16.849 11.2388 16.3658 11.2652 15.8971 11.2652C15.5704 11.2652 15.2451 11.2571 14.9197 11.286C14.8651 11.2908 14.6079 11.2429 14.6265 11.3452C14.6738 11.6051 15.0961 11.6657 15.2959 11.7391C15.3751 11.7683 15.4782 11.8208 15.5595 11.825C15.6618 11.8304 15.7984 11.8079 15.9001 11.7924C16.4094 11.7153 16.758 11.5155 16.8805 10.9809C17.085 10.0878 16.7961 9.31213 16.0126 8.83063C15.9893 8.8163 15.5928 8.57356 15.5654 8.60553C15.4584 8.7304 15.8329 9.28034 15.8794 9.36376C16.0133 9.60439 16.1452 9.84802 16.2955 10.079C16.3567 10.1731 16.4362 10.3063 16.5339 10.3737C16.7188 10.5012 16.4471 9.92624 16.3414 9.72806C16.11 9.2941 15.8567 8.87219 15.595 8.45596C15.4592 8.23999 15.3177 7.98139 15.1508 7.78215C14.9408 7.53154 15.341 8.4101 15.4795 8.70623C15.7555 9.2961 16.0458 9.90835 16.4332 10.4359C16.5334 10.5724 16.66 10.7039 16.679 10.4537C16.7241 9.8626 16.5718 9.30918 16.3769 8.75659C16.3249 8.6089 16.2587 8.28164 16.1252 8.16718C16.008 8.06669 16.3046 8.41893 16.4036 8.53741C16.7071 8.90057 17.0469 9.23089 17.3692 9.57701C17.43 9.64239 17.5794 9.76087 17.4017 9.65105C16.9566 9.37592 16.5297 9.07241 16.1311 8.73289C15.9566 8.58419 15.9555 8.5966 16.1193 8.75362C16.4608 9.08117 16.8009 9.41414 17.1233 9.76064C17.3609 10.016 17.5866 10.2898 17.7957 10.5692C17.8375 10.6252 17.9128 10.6965 17.9378 10.7647C17.9893 10.9052 18.1266 11.1692 17.9615 11.2712C17.7942 11.3745 17.5582 11.4518 17.3603 11.4518C17.229 11.4518 17.0976 11.4539 16.9663 11.4518C16.9311 11.4513 16.83 11.418 16.8627 11.4311C16.9892 11.4817 17.1303 11.4842 17.2625 11.5111C17.3681 11.5325 17.4708 11.5817 17.5794 11.5851C17.7116 11.5893 17.8075 11.6592 17.9349 11.6858C17.9852 11.6964 18.2117 11.7646 18.0296 11.6917C17.7147 11.5658 17.4028 11.5052 17.067 11.5052C17.0167 11.5052 16.558 11.4998 16.5843 11.5377C16.6375 11.6147 16.7375 11.6431 16.8153 11.6858C16.8669 11.7142 16.8562 11.7666 16.916 11.7776C17.0532 11.8031 17.1975 11.8023 17.3366 11.7984C17.4373 11.7955 17.4038 11.6573 17.3869 11.5851C17.2641 11.0609 16.6585 10.7763 16.1903 10.6492C15.8962 10.5694 15.6441 10.489 15.3818 10.3234C15.3469 10.3014 14.9484 10.0673 14.9849 10.0065C15.0721 9.86119 15.5819 9.94157 15.6987 9.95612C16.0535 10.0003 16.4193 10.1049 16.7561 10.2256C16.8561 10.2615 16.9063 10.3253 16.9989 10.279" stroke="#CECECE" stroke-linecap="round"/>
<path d="M17.7188 10.4656C17.7579 10.8702 18.1292 11.1377 18.3585 11.44C18.4059 11.5024 18.555 11.6864 18.6399 11.6917C18.6869 11.6947 18.7321 11.7313 18.785 11.7391C18.9184 11.7589 19.0605 11.7451 19.1952 11.7451C19.3861 11.7451 19.6117 11.7118 19.7979 11.751C19.9318 11.7792 19.8919 11.7384 19.7979 11.6651C19.6122 11.5203 19.4285 11.3816 19.213 11.2815C18.9658 11.1668 18.6314 11.0722 18.4651 10.8447C18.4009 10.7568 18.2495 10.6737 18.1601 10.6225C18.1358 10.6087 18.1189 10.4979 18.0919 10.467C18.0506 10.4198 18.012 10.3981 18.012 10.3323" stroke="#CECECE" stroke-linecap="round"/>
<line x1="10.5" y1="13" x2="10.5" y2="22" stroke="#CECECE"/>
<line x1="13.5" y1="13" x2="13.5" y2="22" stroke="#CECECE"/>
<line x1="9.5" y1="13" x2="9.5" y2="22" stroke="#CECECE"/>
<line x1="14.5" y1="13" x2="14.5" y2="22" stroke="#CECECE"/>
<line x1="14" y1="13" x2="14" y2="22" stroke="#CECECE" stroke-width="2"/>
<line x1="10" y1="13" x2="10" y2="22" stroke="#CECECE" stroke-width="2"/>
</svg>
